<svg xmlns="http://www.w3.org/2000/svg" xmlns:xlink="http://www.w3.org/1999/xlink" width="1040" height="711.3"><rect width="1040" height="711.3" rx="5" ry="5" class="a"/><svg y="0%" x="0%"><circle cx="20" cy="20" r="6" fill="#ff5f58"/><circle cx="40" cy="20" r="6" fill="#ffbd2e"/><circle cx="60" cy="20" r="6" fill="#18c132"/></svg><svg height="651.3" viewBox="0 0 100 65.13" width="1000" x="15" xmlns="http://www.w3.org/2000/svg" xmlns:xlink="http://www.w3.org/1999/xlink" y="50"><style>@keyframes r{0%{transform:translateX(-100px)}2%{transform:translateX(-200px)}5.33%{transform:translateX(-300px)}12%{transform:translateX(-400px)}12.67%{transform:translateX(-500px)}15.33%{transform:translateX(-600px)}16.67%{transform:translateX(-700px)}20%{transform:translateX(-800px)}20.67%{transform:translateX(-900px)}22.33%{transform:translateX(-1000px)}23.33%{transform:translateX(-1100px)}24.33%{transform:translateX(-1200px)}30%{transform:translateX(-1300px)}30.67%{transform:translateX(-1400px)}38.33%{transform:translateX(-1500px)}44%{transform:translateX(-1600px)}44.67%{transform:translateX(-1700px)}46.67%{transform:translateX(-1800px)}50%{transform:translateX(-1900px)}52%{transform:translateX(-2000px)}54.67%{transform:translateX(-2100px)}55.33%{transform:translateX(-2200px)}58%{transform:translateX(-2300px)}59.33%{transform:translateX(-2400px)}60.67%{transform:translateX(-2500px)}64.67%{transform:translateX(-2600px)}65.33%{transform:translateX(-2700px)}66.67%{transform:translateX(-2800px)}69.33%{transform:translateX(-2900px)}70.67%{transform:translateX(-3000px)}75.33%{transform:translateX(-3100px)}76%{transform:translateX(-3200px)}78.67%{transform:translateX(-3300px)}82.67%{transform:translateX(-3400px)}84%{transform:translateX(-3500px)}88.67%{transform:translateX(-3600px)}89.33%{transform:translateX(-3700px)}to{transform:translateX(-3800px)}}.a{fill:#282d35}.f{font-weight:700}.f,.i,.j{fill:#b9c0cb;white-space:pre}.j{fill:#dbab79;font-weight:700}.k,.l,.o,.t{fill:#6f7783;white-space:pre}.l,.o,.t{fill:#a8cc8c;font-weight:700}.o,.t{fill:#71bef2}.t{fill:#e88388}</style><g font-family="Monaco,Consolas,Menlo,'Bitstream Vera Sans Mono','Powerline Symbols',monospace" font-size="1.67"><defs><symbol id="1"><text x="1.002" y="1.67" class="f">frappe_fixture_normalize</text><text x="26.052" y="1.67" class="f">—</text><text x="28.056" y="1.67" class="f">fixture</text><text x="36.072" y="1.67" class="f">export,</text><text x="44.088" y="1.67" class="f">fixed</text></symbol><symbol id="2"><path fill="#e88388" d="M1.002 0h13v2.171h-13z"/><text x="1.002" y="1.67" style="white-space:pre" fill="#b9bfca">✖ PROBLEM</text><text x="16.032" y="1.67" class="i">stock</text><text x="22.044" y="1.67" class="i">bench</text><text x="28.056" y="1.67" class="i">export-fixtures</text><text x="44.088" y="1.67" class="i">behavior</text></symbol><symbol id="3"><text y="1.67" class="j">stock</text><text x="6.012" y="1.67" class="j">`bench</text><text x="13.026" y="1.67" class="j">export-fixtures`</text><text x="30.06" y="1.67" class="j">rewrites</text><text x="39.078" y="1.67" class="j">fixture</text><text x="47.094" y="1.67" class="j">files</text><text x="53.106" y="1.67" class="j">wholesale.</text></symbol><symbol id="4"><text y="1.67" class="k">per-machine</text><text x="12.024" y="1.67" class="k">`creation`</text><text x="23.046" y="1.67" class="k">ordering</text><text x="32.064" y="1.67" class="k">+</text><text x="34.068" y="1.67" class="k">leaking</text><text x="42.084" y="1.67" class="k">`modified`</text><text x="53.106" y="1.67" class="k">timestamps</text></symbol><symbol id="5"><text y="1.67" class="k">=&gt;</text><text x="3.006" y="1.67" class="k">every</text><text x="9.018" y="1.67" class="k">export</text><text x="16.032" y="1.67" class="k">looks</text><text x="22.044" y="1.67" class="k">like</text><text x="27.054" y="1.67" class="k">a</text><text x="29.058" y="1.67" class="k">252-KB</text><text x="36.072" y="1.67" class="k">diff,</text><text x="42.084" y="1.67" class="k">even</text><text x="47.094" y="1.67" class="k">when</text><text x="52.104" y="1.67" class="k">no</text><text x="55.11" y="1.67" class="k">record</text><text x="62.124" y="1.67" class="k">changed.</text></symbol><symbol id="6"><text y="1.67" class="i">$</text><text x="2.004" y="1.67" class="f">bench</text><text x="8.016" y="1.67" class="f">--site</text><text x="15.03" y="1.67" class="f">myapp.localhost</text><text x="31.062" y="1.67" class="f">export-fixtures</text><text x="47.094" y="1.67" class="f">--app</text><text x="53.106" y="1.67" class="f">myapp</text></symbol><symbol id="7"><text y="1.67" class="i">Exporting</text><text x="10.02" y="1.67" class="i">Property</text><text x="19.038" y="1.67" class="i">Setter</text><text x="26.052" y="1.67" class="i">app</text><text x="30.06" y="1.67" class="i">myapp</text><text x="36.072" y="1.67" class="i">filters</text><text x="44.088" y="1.67" class="i">[[&apos;module&apos;,</text><text x="56.112" y="1.67" class="i">&apos;in&apos;,</text><text x="62.124" y="1.67" class="i">[&apos;MyApp&apos;]]]</text></symbol><symbol id="8"><text y="1.67" class="i">Exporting</text><text x="10.02" y="1.67" class="i">Custom</text><text x="17.034" y="1.67" class="i">Field</text><text x="25.05" y="1.67" class="i">app</text><text x="29.058" y="1.67" class="i">myapp</text><text x="35.07" y="1.67" class="i">filters</text><text x="43.086" y="1.67" class="i">[[&apos;module&apos;,</text><text x="55.11" y="1.67" class="i">&apos;in&apos;,</text><text x="61.122" y="1.67" class="i">[&apos;MyApp&apos;]]]</text></symbol><symbol id="9"><text x="1.002" y="1.67" class="f">[████████████░░░░░░░░░░░░░░░░░░░░░░░░░░░░░░░░░░░░░░░░░░░░░░░░]</text><text x="65.13" y="1.67" class="i">20%</text></symbol><symbol id="10"><text y="1.67" class="i">$</text><text x="2.004" y="1.67" class="f">git</text><text x="6.012" y="1.67" class="f">diff</text><text x="11.022" y="1.67" class="f">--stat</text><text x="18.036" y="1.67" class="f">fixtures/</text></symbol><symbol id="11"><text x="1.002" y="1.67" class="i">fixtures/custom_field.json</text><text x="32.064" y="1.67" class="i">|</text><text x="34.068" y="1.67" class="i">10889</text><text x="40.08" y="1.67" class="i">+++++++++++++++--------------</text></symbol><symbol id="12"><text x="1.002" y="1.67" class="i">fixtures/property_setter.json</text><text x="32.064" y="1.67" class="i">|</text><text x="35.07" y="1.67" class="i">1618</text><text x="40.08" y="1.67" class="i">++++++++++-----------</text></symbol><symbol id="13"><text x="1.002" y="1.67" class="i">2</text><text x="3.006" y="1.67" class="i">files</text><text x="9.018" y="1.67" class="i">changed,</text><text x="18.036" y="1.67" class="i">6253</text><text x="23.046" y="1.67" class="i">insertions(+),</text><text x="38.076" y="1.67" class="i">6254</text><text x="43.086" y="1.67" class="i">deletions(-)</text></symbol><symbol id="14"><text x="1.002" y="1.67" class="f">[██████████████████░░░░░░░░░░░░░░░░░░░░░░░░░░░░░░░░░░░░░░░░░░]</text><text x="65.13" y="1.67" class="i">30%</text></symbol><symbol id="15"><text y="1.67" class="l">install</text><text x="8.016" y="1.67" class="l">frappe_fixture_normalize.</text><text x="34.068" y="1.67" class="l">stock</text><text x="40.08" y="1.67" class="l">command</text><text x="48.096" y="1.67" class="l">auto-overridden.</text></symbol><symbol id="16"><path fill="#a8cc8c" d="M1.002 0h13v2.171h-13z"/><text x="1.002" y="1.67" style="white-space:pre">✔ SOLUTION</text><text x="16.032" y="1.67" class="i">frappe_fixture_normalize</text><text x="41.082" y="1.67" class="i">installed</text></symbol><symbol id="17"><text y="1.67" class="i">$</text><text x="2.004" y="1.67" class="f">bench</text><text x="8.016" y="1.67" class="f">get-app</text><text x="16.032" y="1.67" class="f">https://github.com/ananyo141/frappe-fixture-normalize.git</text></symbol><symbol id="18"><text y="1.67" class="i">Getting</text><text x="8.016" y="1.67" class="i">frappe_fixture_normalize</text></symbol><symbol id="19"><text y="1.67" class="i">Installing</text><text x="11.022" y="1.67" class="i">frappe_fixture_normalize</text></symbol><symbol id="20"><text y="1.67" class="i">$</text><text x="2.004" y="1.67" class="f">bench</text><text x="8.016" y="1.67" class="f">--site</text><text x="15.03" y="1.67" class="f">myapp.localhost</text><text x="31.062" y="1.67" class="f">install-app</text><text x="43.086" y="1.67" class="f">frappe_fixture_normalize</text></symbol><symbol id="21"><text y="1.67" class="i">Installing</text><text x="11.022" y="1.67" class="i">frappe_fixture_normalize...</text></symbol><symbol id="22"><text y="1.67" class="i">normalized</text><text x="11.022" y="1.67" class="i">fixtures</text><text x="20.04" y="1.67" class="i">for</text><text x="24.048" y="1.67" class="i">myapp</text><text x="30.06" y="1.67" class="i">at</text><text x="33.066" y="1.67" class="i">/workspace/frappe-bench/apps/myapp/myapp/fixtures</text></symbol><symbol id="23"><text y="1.67" class="i">$</text><text x="2.004" y="1.67" class="f">ls</text><text x="5.01" y="1.67" class="f">fixtures/</text></symbol><symbol id="24"><text y="1.67" class="o">custom_field</text><text x="16.032" y="1.67" class="o">property_setter</text></symbol><symbol id="25"><text y="1.67" class="i">$</text><text x="2.004" y="1.67" class="f">ls</text><text x="5.01" y="1.67" class="f">fixtures/custom_field/</text></symbol><symbol id="26"><text y="1.67" class="i">issue.json</text><text x="13.026" y="1.67" class="i">subscription.json</text><text x="33.066" y="1.67" class="i">user.json</text><text x="45.09" y="1.67" class="i">...</text><text x="51.102" y="1.67" class="k">#</text><text x="53.106" y="1.67" class="k">one</text><text x="57.114" y="1.67" class="k">file</text><text x="62.124" y="1.67" class="k">per</text><text x="66.132" y="1.67" class="k">target</text><text x="73.146" y="1.67" class="k">doctype</text></symbol><symbol id="27"><text y="1.67" class="l">second</text><text x="7.014" y="1.67" class="l">run,</text><text x="12.024" y="1.67" class="l">same</text><text x="17.034" y="1.67" class="l">DB,</text><text x="21.042" y="1.67" class="l">expect</text><text x="28.056" y="1.67" class="l">zero</text><text x="33.066" y="1.67" class="l">diff.</text></symbol><symbol id="28"><text y="1.67" class="i">$</text><text x="2.004" y="1.67" class="f">bench</text><text x="8.016" y="1.67" class="f">--site</text><text x="15.03" y="1.67" class="f">myapp.localhost</text><text x="31.062" y="1.67" class="f">export-fixtures</text><text x="47.094" y="1.67" class="f">--app</text><text x="53.106" y="1.67" class="f">myapp</text><text x="59.118" y="1.67" class="i">&gt;</text><text x="61.122" y="1.67" class="i">/dev/null</text></symbol><symbol id="29"><text y="1.67" class="i">(clean)</text></symbol><symbol id="30"><text y="1.67" class="l">determinism.</text><text x="13.026" y="1.67" class="l">merge-safe</text><text x="24.048" y="1.67" class="l">per-target</text><text x="35.07" y="1.67" class="l">splits.</text><text x="43.086" y="1.67" class="l">override-on-install.</text></symbol><symbol id="a"><path fill="transparent" d="M0 0h100v31H0z"/></symbol><symbol id="b"><path fill="#6f7683" d="M0 0h1.102v2.171H0z"/></symbol></defs><path class="a" d="M0 0h100v65.13H0z"/><g style="animation-duration:30s;animation-iteration-count:infinite;animation-name:r;animation-timing-function:steps(1,end)"><svg width="3900"><svg><use xlink:href="#a"/><use xlink:href="#b" x="-.004"/></svg><svg x="100"><use xlink:href="#a"/><use xlink:href="#b" x="-.004" y="4.317"/><use xlink:href="#1"/><text x="1.002" y="62.458" class="f">[░░░░░░░░░░░░░░░░░░░░░░░░░░░░░░░░░░░░░░░░░░░░░░░░░░░░░░░░░░░░]</text><text x="66.132" y="62.458" class="i">0%</text><use xlink:href="#2" y="62.959"/></svg><svg x="200"><use xlink:href="#a"/><use xlink:href="#b" x="-.004" y="6.488"/><use xlink:href="#1"/><use xlink:href="#3" y="4.342"/><text x="1.002" y="62.458" class="f">[█░░░░░░░░░░░░░░░░░░░░░░░░░░░░░░░░░░░░░░░░░░░░░░░░░░░░░░░░░░░]</text><text x="66.132" y="62.458" class="i">2%</text><use xlink:href="#2" y="62.959"/></svg><svg x="300"><use xlink:href="#a"/><use xlink:href="#b" x="-.004" y="10.83"/><use xlink:href="#1"/><use xlink:href="#3" y="4.342"/><use xlink:href="#4" y="6.513"/><use xlink:href="#5" y="8.684"/><text x="1.002" y="62.458" class="f">[███░░░░░░░░░░░░░░░░░░░░░░░░░░░░░░░░░░░░░░░░░░░░░░░░░░░░░░░░░]</text><text x="66.132" y="62.458" class="i">5%</text><use xlink:href="#2" y="62.959"/></svg><svg x="400"><use xlink:href="#a"/><use xlink:href="#b" x="-.004" y="13.001"/><use xlink:href="#1"/><use xlink:href="#3" y="4.342"/><use xlink:href="#4" y="6.513"/><use xlink:href="#5" y="8.684"/><text x="1.002" y="62.458" class="f">[███████░░░░░░░░░░░░░░░░░░░░░░░░░░░░░░░░░░░░░░░░░░░░░░░░░░░░░]</text><text x="65.13" y="62.458" class="i">12%</text><use xlink:href="#2" y="62.959"/></svg><svg x="500"><use xlink:href="#a"/><use xlink:href="#b" x="-.004" y="15.172"/><use xlink:href="#1"/><use xlink:href="#3" y="4.342"/><use xlink:href="#4" y="6.513"/><use xlink:href="#5" y="8.684"/><use xlink:href="#6" y="13.026"/><text x="1.002" y="62.458" class="f">[████████░░░░░░░░░░░░░░░░░░░░░░░░░░░░░░░░░░░░░░░░░░░░░░░░░░░░]</text><text x="65.13" y="62.458" class="i">12%</text><use xlink:href="#2" y="62.959"/></svg><svg x="600"><use xlink:href="#a"/><use xlink:href="#b" x="-.004" y="17.343"/><use xlink:href="#1"/><use xlink:href="#3" y="4.342"/><use xlink:href="#4" y="6.513"/><use xlink:href="#5" y="8.684"/><use xlink:href="#6" y="13.026"/><use xlink:href="#7" y="15.197"/><text x="1.002" y="62.458" class="f">[█████████░░░░░░░░░░░░░░░░░░░░░░░░░░░░░░░░░░░░░░░░░░░░░░░░░░░]</text><text x="65.13" y="62.458" class="i">15%</text><use xlink:href="#2" y="62.959"/></svg><svg x="700"><use xlink:href="#a"/><use xlink:href="#b" x="-.004" y="19.514"/><use xlink:href="#1"/><use xlink:href="#3" y="4.342"/><use xlink:href="#4" y="6.513"/><use xlink:href="#5" y="8.684"/><use xlink:href="#6" y="13.026"/><use xlink:href="#7" y="15.197"/><use xlink:href="#8" y="17.368"/><text x="1.002" y="62.458" class="f">[██████████░░░░░░░░░░░░░░░░░░░░░░░░░░░░░░░░░░░░░░░░░░░░░░░░░░]</text><text x="65.13" y="62.458" class="i">16%</text><use xlink:href="#2" y="62.959"/></svg><svg x="800"><use xlink:href="#a"/><use xlink:href="#b" x="-.004" y="21.685"/><use xlink:href="#1"/><use xlink:href="#3" y="4.342"/><use xlink:href="#4" y="6.513"/><use xlink:href="#5" y="8.684"/><use xlink:href="#6" y="13.026"/><use xlink:href="#7" y="15.197"/><use xlink:href="#8" y="17.368"/><use xlink:href="#9" y="60.788"/><use xlink:href="#2" y="62.959"/></svg><svg x="900"><use xlink:href="#a"/><use xlink:href="#b" x="-.004" y="23.856"/><use xlink:href="#1"/><use xlink:href="#3" y="4.342"/><use xlink:href="#4" y="6.513"/><use xlink:href="#5" y="8.684"/><use xlink:href="#6" y="13.026"/><use xlink:href="#7" y="15.197"/><use xlink:href="#8" y="17.368"/><use xlink:href="#10" y="21.71"/><use xlink:href="#9" y="60.788"/><use xlink:href="#2" y="62.959"/></svg><svg x="1000"><use xlink:href="#a"/><use xlink:href="#b" x="-.004" y="26.027"/><use xlink:href="#1"/><use xlink:href="#3" y="4.342"/><use xlink:href="#4" y="6.513"/><use xlink:href="#5" y="8.684"/><use xlink:href="#6" y="13.026"/><use xlink:href="#7" y="15.197"/><use xlink:href="#8" y="17.368"/><use xlink:href="#10" y="21.71"/><use xlink:href="#11" y="23.881"/><text x="1.002" y="62.458" class="f">[█████████████░░░░░░░░░░░░░░░░░░░░░░░░░░░░░░░░░░░░░░░░░░░░░░░]</text><text x="65.13" y="62.458" class="i">22%</text><use xlink:href="#2" y="62.959"/></svg><svg x="1100"><use xlink:href="#a"/><use xlink:href="#b" x="-.004" y="28.198"/><use xlink:href="#1"/><use xlink:href="#3" y="4.342"/><use xlink:href="#4" y="6.513"/><use xlink:href="#5" y="8.684"/><use xlink:href="#6" y="13.026"/><use xlink:href="#7" y="15.197"/><use xlink:href="#8" y="17.368"/><use xlink:href="#10" y="21.71"/><use xlink:href="#11" y="23.881"/><use xlink:href="#12" y="26.052"/><text x="1.002" y="62.458" class="f">[██████████████░░░░░░░░░░░░░░░░░░░░░░░░░░░░░░░░░░░░░░░░░░░░░░]</text><text x="65.13" y="62.458" class="i">23%</text><use xlink:href="#2" y="62.959"/></svg><svg x="1200"><use xlink:href="#a"/><use xlink:href="#b" x="-.004" y="30.369"/><use xlink:href="#1"/><use xlink:href="#3" y="4.342"/><use xlink:href="#4" y="6.513"/><use xlink:href="#5" y="8.684"/><use xlink:href="#6" y="13.026"/><use xlink:href="#7" y="15.197"/><use xlink:href="#8" y="17.368"/><use xlink:href="#10" y="21.71"/><use xlink:href="#11" y="23.881"/><use xlink:href="#12" y="26.052"/><use xlink:href="#13" y="28.223"/><text x="1.002" y="62.458" class="f">[███████████████░░░░░░░░░░░░░░░░░░░░░░░░░░░░░░░░░░░░░░░░░░░░░]</text><text x="65.13" y="62.458" class="i">24%</text><use xlink:href="#2" y="62.959"/></svg><svg x="1300"><use xlink:href="#a"/><use xlink:href="#b" x="-.004" y="32.54"/><use xlink:href="#1"/><use xlink:href="#3" y="4.342"/><use xlink:href="#4" y="6.513"/><use xlink:href="#5" y="8.684"/><use xlink:href="#6" y="13.026"/><use xlink:href="#7" y="15.197"/><use xlink:href="#8" y="17.368"/><use xlink:href="#10" y="21.71"/><use xlink:href="#11" y="23.881"/><use xlink:href="#12" y="26.052"/><use xlink:href="#13" y="28.223"/><use xlink:href="#14" y="60.788"/><use xlink:href="#2" y="62.959"/></svg><svg x="1400"><use xlink:href="#a"/><use xlink:href="#b" x="-.004" y="34.711"/><use xlink:href="#1"/><use xlink:href="#3" y="4.342"/><use xlink:href="#4" y="6.513"/><use xlink:href="#5" y="8.684"/><use xlink:href="#6" y="13.026"/><use xlink:href="#7" y="15.197"/><use xlink:href="#8" y="17.368"/><use xlink:href="#10" y="21.71"/><use xlink:href="#11" y="23.881"/><use xlink:href="#12" y="26.052"/><use xlink:href="#13" y="28.223"/><text y="34.235" class="t">wholesale</text><text x="10.02" y="34.235" class="t">rewrite.</text><text x="19.038" y="34.235" class="t">two</text><text x="23.046" y="34.235" class="t">devs</text><text x="28.056" y="34.235" class="t">editing</text><text x="36.072" y="34.235" class="t">Issue</text><text x="42.084" y="34.235" class="t">+</text><text x="44.088" y="34.235" class="t">Subscription</text><text x="57.114" y="34.235" class="t">=</text><text x="59.118" y="34.235" class="t">guaranteed</text><text x="70.14" y="34.235" class="t">conflict.</text><use xlink:href="#14" y="60.788"/><use xlink:href="#2" y="62.959"/></svg><svg x="1500"><use xlink:href="#a"/><use xlink:href="#b" x="-.004" y="6.488"/><use xlink:href="#1"/><use xlink:href="#15" y="4.342"/></svg><svg x="1600"><use xlink:href="#a"/><use xlink:href="#b" x="-.004" y="8.659"/><use xlink:href="#1"/><use xlink:href="#15" y="4.342"/><text x="1.002" y="62.458" class="f">[██████████████████████████░░░░░░░░░░░░░░░░░░░░░░░░░░░░░░░░░░]</text><text x="65.13" y="62.458" class="i">44%</text><use xlink:href="#16" y="62.959"/></svg><svg x="1700"><use xlink:href="#a"/><use xlink:href="#b" x="-.004" y="10.83"/><use xlink:href="#1"/><use xlink:href="#15" y="4.342"/><use xlink:href="#17" y="8.684"/><text x="1.002" y="62.458" class="f">[███████████████████████████░░░░░░░░░░░░░░░░░░░░░░░░░░░░░░░░░]</text><text x="65.13" y="62.458" class="i">44%</text><use xlink:href="#16" y="62.959"/></svg><svg x="1800"><use xlink:href="#a"/><use xlink:href="#b" x="-.004" y="15.172"/><use xlink:href="#1"/><use xlink:href="#15" y="4.342"/><use xlink:href="#17" y="8.684"/><use xlink:href="#18" y="10.855"/><use xlink:href="#19" y="13.026"/><text x="1.002" y="62.458" class="f">[████████████████████████████░░░░░░░░░░░░░░░░░░░░░░░░░░░░░░░░]</text><text x="65.13" y="62.458" class="i">46%</text><use xlink:href="#16" y="62.959"/></svg><svg x="1900"><use xlink:href="#a"/><use xlink:href="#b" x="-.004" y="17.343"/><use xlink:href="#1"/><use xlink:href="#15" y="4.342"/><use xlink:href="#17" y="8.684"/><use xlink:href="#18" y="10.855"/><use xlink:href="#19" y="13.026"/><use xlink:href="#20" y="15.197"/><text x="1.002" y="62.458" class="f">[██████████████████████████████░░░░░░░░░░░░░░░░░░░░░░░░░░░░░░]</text><text x="65.13" y="62.458" class="i">50%</text><use xlink:href="#16" y="62.959"/></svg><svg x="2000"><use xlink:href="#a"/><use xlink:href="#b" x="-.004" y="19.514"/><use xlink:href="#1"/><use xlink:href="#15" y="4.342"/><use xlink:href="#17" y="8.684"/><use xlink:href="#18" y="10.855"/><use xlink:href="#19" y="13.026"/><use xlink:href="#20" y="15.197"/><use xlink:href="#21" y="17.368"/><text x="1.002" y="62.458" class="f">[███████████████████████████████░░░░░░░░░░░░░░░░░░░░░░░░░░░░░]</text><text x="65.13" y="62.458" class="i">52%</text><use xlink:href="#16" y="62.959"/></svg><svg x="2100"><use xlink:href="#a"/><use xlink:href="#b" x="-.004" y="21.685"/><use xlink:href="#1"/><use xlink:href="#15" y="4.342"/><use xlink:href="#17" y="8.684"/><use xlink:href="#18" y="10.855"/><use xlink:href="#19" y="13.026"/><use xlink:href="#20" y="15.197"/><use xlink:href="#21" y="17.368"/><text x="1.002" y="62.458" class="f">[█████████████████████████████████░░░░░░░░░░░░░░░░░░░░░░░░░░░]</text><text x="65.13" y="62.458" class="i">54%</text><use xlink:href="#16" y="62.959"/></svg><svg x="2200"><use xlink:href="#a"/><use xlink:href="#b" x="-.004" y="23.856"/><use xlink:href="#1"/><use xlink:href="#15" y="4.342"/><use xlink:href="#17" y="8.684"/><use xlink:href="#18" y="10.855"/><use xlink:href="#19" y="13.026"/><use xlink:href="#20" y="15.197"/><use xlink:href="#21" y="17.368"/><use xlink:href="#6" y="21.71"/><text x="1.002" y="62.458" class="f">[█████████████████████████████████░░░░░░░░░░░░░░░░░░░░░░░░░░░]</text><text x="65.13" y="62.458" class="i">55%</text><use xlink:href="#16" y="62.959"/></svg><svg x="2300"><use xlink:href="#a"/><use xlink:href="#b" x="-.004" y="26.027"/><use xlink:href="#1"/><use xlink:href="#15" y="4.342"/><use xlink:href="#17" y="8.684"/><use xlink:href="#18" y="10.855"/><use xlink:href="#19" y="13.026"/><use xlink:href="#20" y="15.197"/><use xlink:href="#21" y="17.368"/><use xlink:href="#6" y="21.71"/><use xlink:href="#7" y="23.881"/><text x="1.002" y="62.458" class="f">[███████████████████████████████████░░░░░░░░░░░░░░░░░░░░░░░░░]</text><text x="65.13" y="62.458" class="i">57%</text><use xlink:href="#16" y="62.959"/></svg><svg x="2400"><use xlink:href="#a"/><use xlink:href="#b" x="-.004" y="28.198"/><use xlink:href="#1"/><use xlink:href="#15" y="4.342"/><use xlink:href="#17" y="8.684"/><use xlink:href="#18" y="10.855"/><use xlink:href="#19" y="13.026"/><use xlink:href="#20" y="15.197"/><use xlink:href="#21" y="17.368"/><use xlink:href="#6" y="21.71"/><use xlink:href="#7" y="23.881"/><use xlink:href="#8" y="26.052"/><text x="1.002" y="62.458" class="f">[████████████████████████████████████░░░░░░░░░░░░░░░░░░░░░░░░]</text><text x="65.13" y="62.458" class="i">59%</text><use xlink:href="#16" y="62.959"/></svg><svg x="2500"><use xlink:href="#a"/><use xlink:href="#b" x="-.004" y="30.369"/><use xlink:href="#1"/><use xlink:href="#15" y="4.342"/><use xlink:href="#17" y="8.684"/><use xlink:href="#18" y="10.855"/><use xlink:href="#19" y="13.026"/><use xlink:href="#20" y="15.197"/><use xlink:href="#21" y="17.368"/><use xlink:href="#6" y="21.71"/><use xlink:href="#7" y="23.881"/><use xlink:href="#8" y="26.052"/><use xlink:href="#22" y="28.223"/><text x="1.002" y="62.458" class="f">[████████████████████████████████████░░░░░░░░░░░░░░░░░░░░░░░░]</text><text x="65.13" y="62.458" class="i">60%</text><use xlink:href="#16" y="62.959"/></svg><svg x="2600"><use xlink:href="#a"/><use xlink:href="#b" x="-.004" y="32.54"/><use xlink:href="#1"/><use xlink:href="#15" y="4.342"/><use xlink:href="#17" y="8.684"/><use xlink:href="#18" y="10.855"/><use xlink:href="#19" y="13.026"/><use xlink:href="#20" y="15.197"/><use xlink:href="#21" y="17.368"/><use xlink:href="#6" y="21.71"/><use xlink:href="#7" y="23.881"/><use xlink:href="#8" y="26.052"/><use xlink:href="#22" y="28.223"/><text x="1.002" y="62.458" class="f">[███████████████████████████████████████░░░░░░░░░░░░░░░░░░░░░]</text><text x="65.13" y="62.458" class="i">64%</text><use xlink:href="#16" y="62.959"/></svg><svg x="2700"><use xlink:href="#a"/><use xlink:href="#b" x="-.004" y="34.711"/><use xlink:href="#1"/><use xlink:href="#15" y="4.342"/><use xlink:href="#17" y="8.684"/><use xlink:href="#18" y="10.855"/><use xlink:href="#19" y="13.026"/><use xlink:href="#20" y="15.197"/><use xlink:href="#21" y="17.368"/><use xlink:href="#6" y="21.71"/><use xlink:href="#7" y="23.881"/><use xlink:href="#8" y="26.052"/><use xlink:href="#22" y="28.223"/><use xlink:href="#23" y="32.565"/><text x="1.002" y="62.458" class="f">[███████████████████████████████████████░░░░░░░░░░░░░░░░░░░░░]</text><text x="65.13" y="62.458" class="i">65%</text><use xlink:href="#16" y="62.959"/></svg><svg x="2800"><use xlink:href="#a"/><use xlink:href="#b" x="-.004" y="36.882"/><use xlink:href="#1"/><use xlink:href="#15" y="4.342"/><use xlink:href="#17" y="8.684"/><use xlink:href="#18" y="10.855"/><use xlink:href="#19" y="13.026"/><use xlink:href="#20" y="15.197"/><use xlink:href="#21" y="17.368"/><use xlink:href="#6" y="21.71"/><use xlink:href="#7" y="23.881"/><use xlink:href="#8" y="26.052"/><use xlink:href="#22" y="28.223"/><use xlink:href="#23" y="32.565"/><use xlink:href="#24" y="34.736"/><text x="1.002" y="62.458" class="f">[████████████████████████████████████████░░░░░░░░░░░░░░░░░░░░]</text><text x="65.13" y="62.458" class="i">66%</text><use xlink:href="#16" y="62.959"/></svg><svg x="2900"><use xlink:href="#a"/><use xlink:href="#b" x="-.004" y="39.053"/><use xlink:href="#1"/><use xlink:href="#15" y="4.342"/><use xlink:href="#17" y="8.684"/><use xlink:href="#18" y="10.855"/><use xlink:href="#19" y="13.026"/><use xlink:href="#20" y="15.197"/><use xlink:href="#21" y="17.368"/><use xlink:href="#6" y="21.71"/><use xlink:href="#7" y="23.881"/><use xlink:href="#8" y="26.052"/><use xlink:href="#22" y="28.223"/><use xlink:href="#23" y="32.565"/><use xlink:href="#24" y="34.736"/><use xlink:href="#25" y="36.907"/><text x="1.002" y="62.458" class="f">[██████████████████████████████████████████░░░░░░░░░░░░░░░░░░]</text><text x="65.13" y="62.458" class="i">69%</text><use xlink:href="#16" y="62.959"/></svg><svg x="3000"><use xlink:href="#a"/><use xlink:href="#b" x="-.004" y="41.224"/><use xlink:href="#1"/><use xlink:href="#15" y="4.342"/><use xlink:href="#17" y="8.684"/><use xlink:href="#18" y="10.855"/><use xlink:href="#19" y="13.026"/><use xlink:href="#20" y="15.197"/><use xlink:href="#21" y="17.368"/><use xlink:href="#6" y="21.71"/><use xlink:href="#7" y="23.881"/><use xlink:href="#8" y="26.052"/><use xlink:href="#22" y="28.223"/><use xlink:href="#23" y="32.565"/><use xlink:href="#24" y="34.736"/><use xlink:href="#25" y="36.907"/><use xlink:href="#26" y="39.078"/><text x="1.002" y="62.458" class="f">[██████████████████████████████████████████░░░░░░░░░░░░░░░░░░]</text><text x="65.13" y="62.458" class="i">70%</text><use xlink:href="#16" y="62.959"/></svg><svg x="3100"><use xlink:href="#a"/><use xlink:href="#b" x="-.004" y="43.395"/><use xlink:href="#1"/><use xlink:href="#15" y="4.342"/><use xlink:href="#17" y="8.684"/><use xlink:href="#18" y="10.855"/><use xlink:href="#19" y="13.026"/><use xlink:href="#20" y="15.197"/><use xlink:href="#21" y="17.368"/><use xlink:href="#6" y="21.71"/><use xlink:href="#7" y="23.881"/><use xlink:href="#8" y="26.052"/><use xlink:href="#22" y="28.223"/><use xlink:href="#23" y="32.565"/><use xlink:href="#24" y="34.736"/><use xlink:href="#25" y="36.907"/><use xlink:href="#26" y="39.078"/><text x="1.002" y="62.458" class="f">[█████████████████████████████████████████████░░░░░░░░░░░░░░░]</text><text x="65.13" y="62.458" class="i">75%</text><use xlink:href="#16" y="62.959"/></svg><svg x="3200"><use xlink:href="#a"/><use xlink:href="#b" x="-.004" y="45.566"/><use xlink:href="#1"/><use xlink:href="#15" y="4.342"/><use xlink:href="#17" y="8.684"/><use xlink:href="#18" y="10.855"/><use xlink:href="#19" y="13.026"/><use xlink:href="#20" y="15.197"/><use xlink:href="#21" y="17.368"/><use xlink:href="#6" y="21.71"/><use xlink:href="#7" y="23.881"/><use xlink:href="#8" y="26.052"/><use xlink:href="#22" y="28.223"/><use xlink:href="#23" y="32.565"/><use xlink:href="#24" y="34.736"/><use xlink:href="#25" y="36.907"/><use xlink:href="#26" y="39.078"/><use xlink:href="#27" y="43.42"/><text x="1.002" y="62.458" class="f">[██████████████████████████████████████████████░░░░░░░░░░░░░░]</text><text x="65.13" y="62.458" class="i">76%</text><use xlink:href="#16" y="62.959"/></svg><svg x="3300"><use xlink:href="#a"/><use xlink:href="#b" x="-.004" y="47.737"/><use xlink:href="#1"/><use xlink:href="#15" y="4.342"/><use xlink:href="#17" y="8.684"/><use xlink:href="#18" y="10.855"/><use xlink:href="#19" y="13.026"/><use xlink:href="#20" y="15.197"/><use xlink:href="#21" y="17.368"/><use xlink:href="#6" y="21.71"/><use xlink:href="#7" y="23.881"/><use xlink:href="#8" y="26.052"/><use xlink:href="#22" y="28.223"/><use xlink:href="#23" y="32.565"/><use xlink:href="#24" y="34.736"/><use xlink:href="#25" y="36.907"/><use xlink:href="#26" y="39.078"/><use xlink:href="#27" y="43.42"/><use xlink:href="#28" y="45.591"/><text x="1.002" y="62.458" class="f">[███████████████████████████████████████████████░░░░░░░░░░░░░]</text><text x="65.13" y="62.458" class="i">78%</text><use xlink:href="#16" y="62.959"/></svg><svg x="3400"><use xlink:href="#a"/><use xlink:href="#b" x="-.004" y="49.908"/><use xlink:href="#1"/><use xlink:href="#15" y="4.342"/><use xlink:href="#17" y="8.684"/><use xlink:href="#18" y="10.855"/><use xlink:href="#19" y="13.026"/><use xlink:href="#20" y="15.197"/><use xlink:href="#21" y="17.368"/><use xlink:href="#6" y="21.71"/><use xlink:href="#7" y="23.881"/><use xlink:href="#8" y="26.052"/><use xlink:href="#22" y="28.223"/><use xlink:href="#23" y="32.565"/><use xlink:href="#24" y="34.736"/><use xlink:href="#25" y="36.907"/><use xlink:href="#26" y="39.078"/><use xlink:href="#27" y="43.42"/><use xlink:href="#28" y="45.591"/><use xlink:href="#10" y="47.762"/><text x="1.002" y="62.458" class="f">[██████████████████████████████████████████████████░░░░░░░░░░]</text><text x="65.13" y="62.458" class="i">82%</text><use xlink:href="#16" y="62.959"/></svg><svg x="3500"><use xlink:href="#a"/><use xlink:href="#b" x="-.004" y="52.079"/><use xlink:href="#1"/><use xlink:href="#15" y="4.342"/><use xlink:href="#17" y="8.684"/><use xlink:href="#18" y="10.855"/><use xlink:href="#19" y="13.026"/><use xlink:href="#20" y="15.197"/><use xlink:href="#21" y="17.368"/><use xlink:href="#6" y="21.71"/><use xlink:href="#7" y="23.881"/><use xlink:href="#8" y="26.052"/><use xlink:href="#22" y="28.223"/><use xlink:href="#23" y="32.565"/><use xlink:href="#24" y="34.736"/><use xlink:href="#25" y="36.907"/><use xlink:href="#26" y="39.078"/><use xlink:href="#27" y="43.42"/><use xlink:href="#28" y="45.591"/><use xlink:href="#10" y="47.762"/><use xlink:href="#29" y="49.933"/><text x="1.002" y="62.458" class="f">[██████████████████████████████████████████████████░░░░░░░░░░]</text><text x="65.13" y="62.458" class="i">84%</text><use xlink:href="#16" y="62.959"/></svg><svg x="3600"><use xlink:href="#a"/><use xlink:href="#b" x="-.004" y="54.25"/><use xlink:href="#1"/><use xlink:href="#15" y="4.342"/><use xlink:href="#17" y="8.684"/><use xlink:href="#18" y="10.855"/><use xlink:href="#19" y="13.026"/><use xlink:href="#20" y="15.197"/><use xlink:href="#21" y="17.368"/><use xlink:href="#6" y="21.71"/><use xlink:href="#7" y="23.881"/><use xlink:href="#8" y="26.052"/><use xlink:href="#22" y="28.223"/><use xlink:href="#23" y="32.565"/><use xlink:href="#24" y="34.736"/><use xlink:href="#25" y="36.907"/><use xlink:href="#26" y="39.078"/><use xlink:href="#27" y="43.42"/><use xlink:href="#28" y="45.591"/><use xlink:href="#10" y="47.762"/><use xlink:href="#29" y="49.933"/><text x="1.002" y="62.458" class="f">[█████████████████████████████████████████████████████░░░░░░░]</text><text x="65.13" y="62.458" class="i">88%</text><use xlink:href="#16" y="62.959"/></svg><svg x="3700"><use xlink:href="#a"/><use xlink:href="#b" x="-.004" y="56.421"/><use xlink:href="#1"/><use xlink:href="#15" y="4.342"/><use xlink:href="#17" y="8.684"/><use xlink:href="#18" y="10.855"/><use xlink:href="#19" y="13.026"/><use xlink:href="#20" y="15.197"/><use xlink:href="#21" y="17.368"/><use xlink:href="#6" y="21.71"/><use xlink:href="#7" y="23.881"/><use xlink:href="#8" y="26.052"/><use xlink:href="#22" y="28.223"/><use xlink:href="#23" y="32.565"/><use xlink:href="#24" y="34.736"/><use xlink:href="#25" y="36.907"/><use xlink:href="#26" y="39.078"/><use xlink:href="#27" y="43.42"/><use xlink:href="#28" y="45.591"/><use xlink:href="#10" y="47.762"/><use xlink:href="#29" y="49.933"/><use xlink:href="#30" y="54.275"/><text x="1.002" y="62.458" class="f">[██████████████████████████████████████████████████████░░░░░░]</text><text x="65.13" y="62.458" class="i">89%</text><use xlink:href="#16" y="62.959"/></svg><svg x="3800"><use xlink:href="#a"/><use xlink:href="#b" x="-.004" y="56.421"/><use xlink:href="#1"/><use xlink:href="#15" y="4.342"/><use xlink:href="#17" y="8.684"/><use xlink:href="#18" y="10.855"/><use xlink:href="#19" y="13.026"/><use xlink:href="#20" y="15.197"/><use xlink:href="#21" y="17.368"/><use xlink:href="#6" y="21.71"/><use xlink:href="#7" y="23.881"/><use xlink:href="#8" y="26.052"/><use xlink:href="#22" y="28.223"/><use xlink:href="#23" y="32.565"/><use xlink:href="#24" y="34.736"/><use xlink:href="#25" y="36.907"/><use xlink:href="#26" y="39.078"/><use xlink:href="#27" y="43.42"/><use xlink:href="#28" y="45.591"/><use xlink:href="#10" y="47.762"/><use xlink:href="#29" y="49.933"/><use xlink:href="#30" y="54.275"/><text x="1.002" y="62.458" class="f">[████████████████████████████████████████████████████████████]</text><text x="64.128" y="62.458" class="i">100%</text><use xlink:href="#16" y="62.959"/></svg></svg></g></g></svg></svg>