<svg xmlns="http://www.w3.org/2000/svg" xmlns:xlink="http://www.w3.org/1999/xlink" width="1040" height="667.88"><rect width="1040" height="667.88" rx="5" ry="5" class="a"/><svg y="0%" x="0%"><circle cx="20" cy="20" r="6" fill="#ff5f58"/><circle cx="40" cy="20" r="6" fill="#ffbd2e"/><circle cx="60" cy="20" r="6" fill="#18c132"/></svg><svg height="607.88" viewBox="0 0 100 60.788" width="1000" x="15" xmlns="http://www.w3.org/2000/svg" xmlns:xlink="http://www.w3.org/1999/xlink" y="50"><style>@keyframes q{0%{transform:translateX(-100px)}1.06%{transform:translateX(-200px)}3.17%{transform:translateX(-300px)}6.69%{transform:translateX(-400px)}12.68%{transform:translateX(-500px)}13.38%{transform:translateX(-600px)}15.49%{transform:translateX(-700px)}17.25%{transform:translateX(-800px)}21.13%{transform:translateX(-900px)}21.48%{transform:translateX(-1000px)}22.89%{transform:translateX(-1100px)}23.94%{transform:translateX(-1200px)}24.65%{transform:translateX(-1300px)}30.28%{transform:translateX(-1400px)}30.63%{transform:translateX(-1500px)}38.73%{transform:translateX(-1600px)}39.44%{transform:translateX(-1700px)}41.55%{transform:translateX(-1800px)}46.48%{transform:translateX(-1900px)}47.18%{transform:translateX(-2000px)}49.3%{transform:translateX(-2100px)}53.52%{transform:translateX(-2200px)}56.34%{transform:translateX(-2300px)}59.86%{transform:translateX(-2400px)}60.56%{transform:translateX(-2500px)}62.68%{transform:translateX(-2600px)}64.08%{transform:translateX(-2700px)}65.14%{transform:translateX(-2800px)}69.72%{transform:translateX(-2900px)}70.07%{transform:translateX(-3000px)}71.13%{transform:translateX(-3100px)}73.94%{transform:translateX(-3200px)}75%{transform:translateX(-3300px)}79.58%{transform:translateX(-3400px)}79.93%{transform:translateX(-3500px)}84.51%{transform:translateX(-3600px)}88.73%{transform:translateX(-3700px)}90.14%{transform:translateX(-3800px)}94.37%{transform:translateX(-3900px)}94.72%{transform:translateX(-4000px)}to{transform:translateX(-4100px)}}.a{fill:#282d35}.g{fill:#fff;font-weight:700}.g,.h,.i,.j{white-space:pre}.h{fill:#dbab79;font-weight:700}.i,.j{fill:#6f7783}.j{fill:#b9c0cb}.k,.m{font-weight:700}.k{fill:#b9c0cb;white-space:pre}.m{fill:#a8cc8c}.m,.n,.s{white-space:pre}.n{fill:#71bef2;font-weight:700}.s{fill:#e88388}</style><g font-family="Monaco,Consolas,Menlo,'Bitstream Vera Sans Mono','Powerline Symbols',monospace" font-size="1.67"><defs><symbol id="1"><path fill="#dc2626" d="M0 0h14v2.171H0z"/><text y="1.67" class="g">✖ PROBLEM</text></symbol><symbol id="2"><text y="1.67" class="h">stock</text><text x="6.012" y="1.67" class="h">`bench</text><text x="13.026" y="1.67" class="h">export-fixtures`</text><text x="30.06" y="1.67" class="h">rewrites</text><text x="39.078" y="1.67" class="h">fixture</text><text x="47.094" y="1.67" class="h">files</text><text x="53.106" y="1.67" class="h">wholesale.</text></symbol><symbol id="3"><text y="1.67" class="i">per-machine</text><text x="12.024" y="1.67" class="i">`creation`</text><text x="23.046" y="1.67" class="i">ordering</text><text x="32.064" y="1.67" class="i">+</text><text x="34.068" y="1.67" class="i">leaking</text><text x="42.084" y="1.67" class="i">`modified`</text><text x="53.106" y="1.67" class="i">timestamps</text><text x="64.128" y="1.67" class="i">=&gt;</text></symbol><symbol id="4"><text y="1.67" class="i">every</text><text x="6.012" y="1.67" class="i">export</text><text x="13.026" y="1.67" class="i">looks</text><text x="19.038" y="1.67" class="i">like</text><text x="24.048" y="1.67" class="i">a</text><text x="26.052" y="1.67" class="i">252-KB</text><text x="33.066" y="1.67" class="i">diff,</text><text x="39.078" y="1.67" class="i">even</text><text x="44.088" y="1.67" class="i">when</text><text x="49.098" y="1.67" class="i">zero</text><text x="54.108" y="1.67" class="i">records</text><text x="62.124" y="1.67" class="i">changed.</text></symbol><symbol id="5"><text y="1.67" class="j">$</text><text x="2.004" y="1.67" class="k">bench</text><text x="8.016" y="1.67" class="k">--site</text><text x="15.03" y="1.67" class="k">myapp.localhost</text><text x="31.062" y="1.67" class="k">export-fixtures</text><text x="47.094" y="1.67" class="k">--app</text><text x="53.106" y="1.67" class="k">myapp</text></symbol><symbol id="6"><text y="1.67" class="j">Exporting</text><text x="10.02" y="1.67" class="j">Property</text><text x="19.038" y="1.67" class="j">Setter</text><text x="26.052" y="1.67" class="j">app</text><text x="30.06" y="1.67" class="j">myapp</text><text x="36.072" y="1.67" class="j">filters</text><text x="44.088" y="1.67" class="j">[[&apos;module&apos;,</text><text x="56.112" y="1.67" class="j">&apos;in&apos;,</text><text x="62.124" y="1.67" class="j">[&apos;MyApp&apos;]]]</text></symbol><symbol id="7"><text y="1.67" class="j">Exporting</text><text x="10.02" y="1.67" class="j">Custom</text><text x="17.034" y="1.67" class="j">Field</text><text x="25.05" y="1.67" class="j">app</text><text x="29.058" y="1.67" class="j">myapp</text><text x="35.07" y="1.67" class="j">filters</text><text x="43.086" y="1.67" class="j">[[&apos;module&apos;,</text><text x="55.11" y="1.67" class="j">&apos;in&apos;,</text><text x="61.122" y="1.67" class="j">[&apos;MyApp&apos;]]]</text></symbol><symbol id="8"><text y="1.67" class="j">$</text><text x="2.004" y="1.67" class="k">git</text><text x="6.012" y="1.67" class="k">diff</text><text x="11.022" y="1.67" class="k">--stat</text><text x="18.036" y="1.67" class="k">fixtures/</text></symbol><symbol id="9"><text x="1.002" y="1.67" class="j">fixtures/custom_field.json</text><text x="32.064" y="1.67" class="j">|</text><text x="34.068" y="1.67" class="j">10889</text><text x="40.08" y="1.67" class="j">+++++++++++++++++++++--------------</text></symbol><symbol id="10"><text x="1.002" y="1.67" class="j">fixtures/property_setter.json</text><text x="32.064" y="1.67" class="j">|</text><text x="35.07" y="1.67" class="j">1618</text><text x="40.08" y="1.67" class="j">++++++++++--------------------------</text></symbol><symbol id="11"><text x="1.002" y="1.67" class="j">2</text><text x="3.006" y="1.67" class="j">files</text><text x="9.018" y="1.67" class="j">changed,</text><text x="18.036" y="1.67" class="j">6253</text><text x="23.046" y="1.67" class="j">insertions(+),</text><text x="38.076" y="1.67" class="j">6254</text><text x="43.086" y="1.67" class="j">deletions(-)</text></symbol><symbol id="12"><path fill="#16a34a" d="M0 0h15v2.171H0z"/><text y="1.67" class="g">✔ SOLUTION</text></symbol><symbol id="13"><text y="1.67" class="m">install</text><text x="8.016" y="1.67" class="m">frappe_fixture_normalize.</text><text x="34.068" y="1.67" class="m">stock</text><text x="40.08" y="1.67" class="m">command</text><text x="48.096" y="1.67" class="m">auto-overridden.</text></symbol><symbol id="14"><text y="1.67" class="j">$</text><text x="2.004" y="1.67" class="k">bench</text><text x="8.016" y="1.67" class="k">get-app</text><text x="16.032" y="1.67" class="k">https://github.com/ananyo141/frappe-fixture-normalize.git</text></symbol><symbol id="15"><text y="1.67" class="j">Getting</text><text x="8.016" y="1.67" class="j">frappe_fixture_normalize</text></symbol><symbol id="16"><text y="1.67" class="j">Installing</text><text x="11.022" y="1.67" class="j">frappe_fixture_normalize</text></symbol><symbol id="17"><text y="1.67" class="j">$</text><text x="2.004" y="1.67" class="k">bench</text><text x="8.016" y="1.67" class="k">--site</text><text x="15.03" y="1.67" class="k">myapp.localhost</text><text x="31.062" y="1.67" class="k">install-app</text><text x="43.086" y="1.67" class="k">frappe_fixture_normalize</text></symbol><symbol id="18"><text y="1.67" class="j">Installing</text><text x="11.022" y="1.67" class="j">frappe_fixture_normalize...</text></symbol><symbol id="19"><text y="1.67" class="j">normalized</text><text x="11.022" y="1.67" class="j">fixtures</text><text x="20.04" y="1.67" class="j">for</text><text x="24.048" y="1.67" class="j">myapp</text><text x="30.06" y="1.67" class="j">at</text><text x="33.066" y="1.67" class="j">/workspace/frappe-bench/apps/myapp/myapp/fixtures</text></symbol><symbol id="20"><text y="1.67" class="j">$</text><text x="2.004" y="1.67" class="k">ls</text><text x="5.01" y="1.67" class="k">fixtures/</text></symbol><symbol id="21"><text y="1.67" class="n">custom_field</text><text x="16.032" y="1.67" class="n">property_setter</text></symbol><symbol id="22"><text y="1.67" class="j">$</text><text x="2.004" y="1.67" class="k">ls</text><text x="5.01" y="1.67" class="k">fixtures/custom_field/</text></symbol><symbol id="23"><text y="1.67" class="j">issue.json</text><text x="13.026" y="1.67" class="j">subscription.json</text><text x="33.066" y="1.67" class="j">user.json</text><text x="45.09" y="1.67" class="j">...</text><text x="51.102" y="1.67" class="i">#</text><text x="53.106" y="1.67" class="i">one</text><text x="57.114" y="1.67" class="i">file</text><text x="62.124" y="1.67" class="i">per</text><text x="66.132" y="1.67" class="i">target</text><text x="73.146" y="1.67" class="i">doctype</text></symbol><symbol id="24"><text y="1.67" class="m">second</text><text x="7.014" y="1.67" class="m">run,</text><text x="12.024" y="1.67" class="m">same</text><text x="17.034" y="1.67" class="m">DB,</text><text x="21.042" y="1.67" class="m">expect</text><text x="28.056" y="1.67" class="m">zero</text><text x="33.066" y="1.67" class="m">diff.</text></symbol><symbol id="25"><text y="1.67" class="j">$</text><text x="2.004" y="1.67" class="k">bench</text><text x="8.016" y="1.67" class="k">--site</text><text x="15.03" y="1.67" class="k">myapp.localhost</text><text x="31.062" y="1.67" class="k">export-fixtures</text><text x="47.094" y="1.67" class="k">--app</text><text x="53.106" y="1.67" class="k">myapp</text><text x="59.118" y="1.67" class="j">&gt;</text><text x="61.122" y="1.67" class="j">/dev/null</text></symbol><symbol id="26"><text y="1.67" class="j">(clean)</text></symbol><symbol id="27"><text y="1.67" class="m">determinism.</text><text x="13.026" y="1.67" class="m">merge-safe</text><text x="24.048" y="1.67" class="m">per-target</text><text x="35.07" y="1.67" class="m">splits.</text><text x="43.086" y="1.67" class="m">override-on-install.</text></symbol><symbol id="a"><path fill="transparent" d="M0 0h100v29H0z"/></symbol><symbol id="b"><path fill="#6f7683" d="M0 0h1.102v2.171H0z"/></symbol></defs><path class="a" d="M0 0h100v60.788H0z"/><g style="animation-duration:28.4s;animation-iteration-count:infinite;animation-name:q;animation-timing-function:steps(1,end)"><svg width="4200"><svg><use xlink:href="#a"/><use xlink:href="#b" x="-.004"/></svg><svg x="100"><use xlink:href="#a"/><use xlink:href="#b" x="-.004"/></svg><svg x="200"><use xlink:href="#a"/><use xlink:href="#b" x="-.004" y="2.146"/><use xlink:href="#1"/></svg><svg x="300"><use xlink:href="#a"/><use xlink:href="#b" x="-.004" y="4.317"/><use xlink:href="#1"/><use xlink:href="#2" y="2.171"/></svg><svg x="400"><use xlink:href="#a"/><use xlink:href="#b" x="-.004" y="8.659"/><use xlink:href="#1"/><use xlink:href="#2" y="2.171"/><use xlink:href="#3" y="4.342"/><use xlink:href="#4" y="6.513"/></svg><svg x="500"><use xlink:href="#a"/><use xlink:href="#b" x="-.004" y="10.83"/><use xlink:href="#1"/><use xlink:href="#2" y="2.171"/><use xlink:href="#3" y="4.342"/><use xlink:href="#4" y="6.513"/></svg><svg x="600"><use xlink:href="#a"/><use xlink:href="#b" x="-.004" y="13.001"/><use xlink:href="#1"/><use xlink:href="#2" y="2.171"/><use xlink:href="#3" y="4.342"/><use xlink:href="#4" y="6.513"/><use xlink:href="#5" y="10.855"/></svg><svg x="700"><use xlink:href="#a"/><use xlink:href="#b" x="-.004" y="15.172"/><use xlink:href="#1"/><use xlink:href="#2" y="2.171"/><use xlink:href="#3" y="4.342"/><use xlink:href="#4" y="6.513"/><use xlink:href="#5" y="10.855"/><use xlink:href="#6" y="13.026"/></svg><svg x="800"><use xlink:href="#a"/><use xlink:href="#b" x="-.004" y="17.343"/><use xlink:href="#1"/><use xlink:href="#2" y="2.171"/><use xlink:href="#3" y="4.342"/><use xlink:href="#4" y="6.513"/><use xlink:href="#5" y="10.855"/><use xlink:href="#6" y="13.026"/><use xlink:href="#7" y="15.197"/></svg><svg x="900"><use xlink:href="#a"/><use xlink:href="#b" x="-.004" y="19.514"/><use xlink:href="#1"/><use xlink:href="#2" y="2.171"/><use xlink:href="#3" y="4.342"/><use xlink:href="#4" y="6.513"/><use xlink:href="#5" y="10.855"/><use xlink:href="#6" y="13.026"/><use xlink:href="#7" y="15.197"/></svg><svg x="1000"><use xlink:href="#a"/><use xlink:href="#b" x="-.004" y="21.685"/><use xlink:href="#1"/><use xlink:href="#2" y="2.171"/><use xlink:href="#3" y="4.342"/><use xlink:href="#4" y="6.513"/><use xlink:href="#5" y="10.855"/><use xlink:href="#6" y="13.026"/><use xlink:href="#7" y="15.197"/><use xlink:href="#8" y="19.539"/></svg><svg x="1100"><use xlink:href="#a"/><use xlink:href="#b" x="-.004" y="23.856"/><use xlink:href="#1"/><use xlink:href="#2" y="2.171"/><use xlink:href="#3" y="4.342"/><use xlink:href="#4" y="6.513"/><use xlink:href="#5" y="10.855"/><use xlink:href="#6" y="13.026"/><use xlink:href="#7" y="15.197"/><use xlink:href="#8" y="19.539"/><use xlink:href="#9" y="21.71"/></svg><svg x="1200"><use xlink:href="#a"/><use xlink:href="#b" x="-.004" y="26.027"/><use xlink:href="#1"/><use xlink:href="#2" y="2.171"/><use xlink:href="#3" y="4.342"/><use xlink:href="#4" y="6.513"/><use xlink:href="#5" y="10.855"/><use xlink:href="#6" y="13.026"/><use xlink:href="#7" y="15.197"/><use xlink:href="#8" y="19.539"/><use xlink:href="#9" y="21.71"/><use xlink:href="#10" y="23.881"/></svg><svg x="1300"><use xlink:href="#a"/><use xlink:href="#b" x="-.004" y="28.198"/><use xlink:href="#1"/><use xlink:href="#2" y="2.171"/><use xlink:href="#3" y="4.342"/><use xlink:href="#4" y="6.513"/><use xlink:href="#5" y="10.855"/><use xlink:href="#6" y="13.026"/><use xlink:href="#7" y="15.197"/><use xlink:href="#8" y="19.539"/><use xlink:href="#9" y="21.71"/><use xlink:href="#10" y="23.881"/><use xlink:href="#11" y="26.052"/></svg><svg x="1400"><use xlink:href="#a"/><use xlink:href="#b" x="-.004" y="30.369"/><use xlink:href="#1"/><use xlink:href="#2" y="2.171"/><use xlink:href="#3" y="4.342"/><use xlink:href="#4" y="6.513"/><use xlink:href="#5" y="10.855"/><use xlink:href="#6" y="13.026"/><use xlink:href="#7" y="15.197"/><use xlink:href="#8" y="19.539"/><use xlink:href="#9" y="21.71"/><use xlink:href="#10" y="23.881"/><use xlink:href="#11" y="26.052"/></svg><svg x="1500"><use xlink:href="#a"/><use xlink:href="#b" x="-.004" y="32.54"/><use xlink:href="#1"/><use xlink:href="#2" y="2.171"/><use xlink:href="#3" y="4.342"/><use xlink:href="#4" y="6.513"/><use xlink:href="#5" y="10.855"/><use xlink:href="#6" y="13.026"/><use xlink:href="#7" y="15.197"/><use xlink:href="#8" y="19.539"/><use xlink:href="#9" y="21.71"/><use xlink:href="#10" y="23.881"/><use xlink:href="#11" y="26.052"/><text y="32.064" class="s">wholesale</text><text x="10.02" y="32.064" class="s">rewrite.</text><text x="19.038" y="32.064" class="s">two</text><text x="23.046" y="32.064" class="s">devs</text><text x="28.056" y="32.064" class="s">editing</text><text x="36.072" y="32.064" class="s">Issue</text><text x="42.084" y="32.064" class="s">+</text><text x="44.088" y="32.064" class="s">Subscription</text><text x="57.114" y="32.064" class="s">=</text><text x="59.118" y="32.064" class="s">guaranteed</text><text x="70.14" y="32.064" class="s">conflict.</text></svg><svg x="1600"><use xlink:href="#a"/><use xlink:href="#b" x="-.004"/></svg><svg x="1700"><use xlink:href="#a"/><use xlink:href="#b" x="-.004" y="2.146"/><use xlink:href="#12"/></svg><svg x="1800"><use xlink:href="#a"/><use xlink:href="#b" x="-.004" y="4.317"/><use xlink:href="#12"/><use xlink:href="#13" y="2.171"/></svg><svg x="1900"><use xlink:href="#a"/><use xlink:href="#b" x="-.004" y="6.488"/><use xlink:href="#12"/><use xlink:href="#13" y="2.171"/></svg><svg x="2000"><use xlink:href="#a"/><use xlink:href="#b" x="-.004" y="8.659"/><use xlink:href="#12"/><use xlink:href="#13" y="2.171"/><use xlink:href="#14" y="6.513"/></svg><svg x="2100"><use xlink:href="#a"/><use xlink:href="#b" x="-.004" y="13.001"/><use xlink:href="#12"/><use xlink:href="#13" y="2.171"/><use xlink:href="#14" y="6.513"/><use xlink:href="#15" y="8.684"/><use xlink:href="#16" y="10.855"/></svg><svg x="2200"><use xlink:href="#a"/><use xlink:href="#b" x="-.004" y="15.172"/><use xlink:href="#12"/><use xlink:href="#13" y="2.171"/><use xlink:href="#14" y="6.513"/><use xlink:href="#15" y="8.684"/><use xlink:href="#16" y="10.855"/><use xlink:href="#17" y="13.026"/></svg><svg x="2300"><use xlink:href="#a"/><use xlink:href="#b" x="-.004" y="17.343"/><use xlink:href="#12"/><use xlink:href="#13" y="2.171"/><use xlink:href="#14" y="6.513"/><use xlink:href="#15" y="8.684"/><use xlink:href="#16" y="10.855"/><use xlink:href="#17" y="13.026"/><use xlink:href="#18" y="15.197"/></svg><svg x="2400"><use xlink:href="#a"/><use xlink:href="#b" x="-.004" y="19.514"/><use xlink:href="#12"/><use xlink:href="#13" y="2.171"/><use xlink:href="#14" y="6.513"/><use xlink:href="#15" y="8.684"/><use xlink:href="#16" y="10.855"/><use xlink:href="#17" y="13.026"/><use xlink:href="#18" y="15.197"/></svg><svg x="2500"><use xlink:href="#a"/><use xlink:href="#b" x="-.004" y="21.685"/><use xlink:href="#12"/><use xlink:href="#13" y="2.171"/><use xlink:href="#14" y="6.513"/><use xlink:href="#15" y="8.684"/><use xlink:href="#16" y="10.855"/><use xlink:href="#17" y="13.026"/><use xlink:href="#18" y="15.197"/><use xlink:href="#5" y="19.539"/></svg><svg x="2600"><use xlink:href="#a"/><use xlink:href="#b" x="-.004" y="23.856"/><use xlink:href="#12"/><use xlink:href="#13" y="2.171"/><use xlink:href="#14" y="6.513"/><use xlink:href="#15" y="8.684"/><use xlink:href="#16" y="10.855"/><use xlink:href="#17" y="13.026"/><use xlink:href="#18" y="15.197"/><use xlink:href="#5" y="19.539"/><use xlink:href="#6" y="21.71"/></svg><svg x="2700"><use xlink:href="#a"/><use xlink:href="#b" x="-.004" y="26.027"/><use xlink:href="#12"/><use xlink:href="#13" y="2.171"/><use xlink:href="#14" y="6.513"/><use xlink:href="#15" y="8.684"/><use xlink:href="#16" y="10.855"/><use xlink:href="#17" y="13.026"/><use xlink:href="#18" y="15.197"/><use xlink:href="#5" y="19.539"/><use xlink:href="#6" y="21.71"/><use xlink:href="#7" y="23.881"/></svg><svg x="2800"><use xlink:href="#a"/><use xlink:href="#b" x="-.004" y="28.198"/><use xlink:href="#12"/><use xlink:href="#13" y="2.171"/><use xlink:href="#14" y="6.513"/><use xlink:href="#15" y="8.684"/><use xlink:href="#16" y="10.855"/><use xlink:href="#17" y="13.026"/><use xlink:href="#18" y="15.197"/><use xlink:href="#5" y="19.539"/><use xlink:href="#6" y="21.71"/><use xlink:href="#7" y="23.881"/><use xlink:href="#19" y="26.052"/></svg><svg x="2900"><use xlink:href="#a"/><use xlink:href="#b" x="-.004" y="30.369"/><use xlink:href="#12"/><use xlink:href="#13" y="2.171"/><use xlink:href="#14" y="6.513"/><use xlink:href="#15" y="8.684"/><use xlink:href="#16" y="10.855"/><use xlink:href="#17" y="13.026"/><use xlink:href="#18" y="15.197"/><use xlink:href="#5" y="19.539"/><use xlink:href="#6" y="21.71"/><use xlink:href="#7" y="23.881"/><use xlink:href="#19" y="26.052"/></svg><svg x="3000"><use xlink:href="#a"/><use xlink:href="#b" x="-.004" y="32.54"/><use xlink:href="#12"/><use xlink:href="#13" y="2.171"/><use xlink:href="#14" y="6.513"/><use xlink:href="#15" y="8.684"/><use xlink:href="#16" y="10.855"/><use xlink:href="#17" y="13.026"/><use xlink:href="#18" y="15.197"/><use xlink:href="#5" y="19.539"/><use xlink:href="#6" y="21.71"/><use xlink:href="#7" y="23.881"/><use xlink:href="#19" y="26.052"/><use xlink:href="#20" y="30.394"/></svg><svg x="3100"><use xlink:href="#a"/><use xlink:href="#b" x="-.004" y="34.711"/><use xlink:href="#12"/><use xlink:href="#13" y="2.171"/><use xlink:href="#14" y="6.513"/><use xlink:href="#15" y="8.684"/><use xlink:href="#16" y="10.855"/><use xlink:href="#17" y="13.026"/><use xlink:href="#18" y="15.197"/><use xlink:href="#5" y="19.539"/><use xlink:href="#6" y="21.71"/><use xlink:href="#7" y="23.881"/><use xlink:href="#19" y="26.052"/><use xlink:href="#20" y="30.394"/><use xlink:href="#21" y="32.565"/></svg><svg x="3200"><use xlink:href="#a"/><use xlink:href="#b" x="-.004" y="36.882"/><use xlink:href="#12"/><use xlink:href="#13" y="2.171"/><use xlink:href="#14" y="6.513"/><use xlink:href="#15" y="8.684"/><use xlink:href="#16" y="10.855"/><use xlink:href="#17" y="13.026"/><use xlink:href="#18" y="15.197"/><use xlink:href="#5" y="19.539"/><use xlink:href="#6" y="21.71"/><use xlink:href="#7" y="23.881"/><use xlink:href="#19" y="26.052"/><use xlink:href="#20" y="30.394"/><use xlink:href="#21" y="32.565"/><use xlink:href="#22" y="34.736"/></svg><svg x="3300"><use xlink:href="#a"/><use xlink:href="#b" x="-.004" y="39.053"/><use xlink:href="#12"/><use xlink:href="#13" y="2.171"/><use xlink:href="#14" y="6.513"/><use xlink:href="#15" y="8.684"/><use xlink:href="#16" y="10.855"/><use xlink:href="#17" y="13.026"/><use xlink:href="#18" y="15.197"/><use xlink:href="#5" y="19.539"/><use xlink:href="#6" y="21.71"/><use xlink:href="#7" y="23.881"/><use xlink:href="#19" y="26.052"/><use xlink:href="#20" y="30.394"/><use xlink:href="#21" y="32.565"/><use xlink:href="#22" y="34.736"/><use xlink:href="#23" y="36.907"/></svg><svg x="3400"><use xlink:href="#a"/><use xlink:href="#b" x="-.004" y="41.224"/><use xlink:href="#12"/><use xlink:href="#13" y="2.171"/><use xlink:href="#14" y="6.513"/><use xlink:href="#15" y="8.684"/><use xlink:href="#16" y="10.855"/><use xlink:href="#17" y="13.026"/><use xlink:href="#18" y="15.197"/><use xlink:href="#5" y="19.539"/><use xlink:href="#6" y="21.71"/><use xlink:href="#7" y="23.881"/><use xlink:href="#19" y="26.052"/><use xlink:href="#20" y="30.394"/><use xlink:href="#21" y="32.565"/><use xlink:href="#22" y="34.736"/><use xlink:href="#23" y="36.907"/></svg><svg x="3500"><use xlink:href="#a"/><use xlink:href="#b" x="-.004" y="43.395"/><use xlink:href="#12"/><use xlink:href="#13" y="2.171"/><use xlink:href="#14" y="6.513"/><use xlink:href="#15" y="8.684"/><use xlink:href="#16" y="10.855"/><use xlink:href="#17" y="13.026"/><use xlink:href="#18" y="15.197"/><use xlink:href="#5" y="19.539"/><use xlink:href="#6" y="21.71"/><use xlink:href="#7" y="23.881"/><use xlink:href="#19" y="26.052"/><use xlink:href="#20" y="30.394"/><use xlink:href="#21" y="32.565"/><use xlink:href="#22" y="34.736"/><use xlink:href="#23" y="36.907"/><use xlink:href="#24" y="41.249"/></svg><svg x="3600"><use xlink:href="#a"/><use xlink:href="#b" x="-.004" y="45.566"/><use xlink:href="#12"/><use xlink:href="#13" y="2.171"/><use xlink:href="#14" y="6.513"/><use xlink:href="#15" y="8.684"/><use xlink:href="#16" y="10.855"/><use xlink:href="#17" y="13.026"/><use xlink:href="#18" y="15.197"/><use xlink:href="#5" y="19.539"/><use xlink:href="#6" y="21.71"/><use xlink:href="#7" y="23.881"/><use xlink:href="#19" y="26.052"/><use xlink:href="#20" y="30.394"/><use xlink:href="#21" y="32.565"/><use xlink:href="#22" y="34.736"/><use xlink:href="#23" y="36.907"/><use xlink:href="#24" y="41.249"/><use xlink:href="#25" y="43.42"/></svg><svg x="3700"><use xlink:href="#a"/><use xlink:href="#b" x="-.004" y="47.737"/><use xlink:href="#12"/><use xlink:href="#13" y="2.171"/><use xlink:href="#14" y="6.513"/><use xlink:href="#15" y="8.684"/><use xlink:href="#16" y="10.855"/><use xlink:href="#17" y="13.026"/><use xlink:href="#18" y="15.197"/><use xlink:href="#5" y="19.539"/><use xlink:href="#6" y="21.71"/><use xlink:href="#7" y="23.881"/><use xlink:href="#19" y="26.052"/><use xlink:href="#20" y="30.394"/><use xlink:href="#21" y="32.565"/><use xlink:href="#22" y="34.736"/><use xlink:href="#23" y="36.907"/><use xlink:href="#24" y="41.249"/><use xlink:href="#25" y="43.42"/><use xlink:href="#8" y="45.591"/></svg><svg x="3800"><use xlink:href="#a"/><use xlink:href="#b" x="-.004" y="49.908"/><use xlink:href="#12"/><use xlink:href="#13" y="2.171"/><use xlink:href="#14" y="6.513"/><use xlink:href="#15" y="8.684"/><use xlink:href="#16" y="10.855"/><use xlink:href="#17" y="13.026"/><use xlink:href="#18" y="15.197"/><use xlink:href="#5" y="19.539"/><use xlink:href="#6" y="21.71"/><use xlink:href="#7" y="23.881"/><use xlink:href="#19" y="26.052"/><use xlink:href="#20" y="30.394"/><use xlink:href="#21" y="32.565"/><use xlink:href="#22" y="34.736"/><use xlink:href="#23" y="36.907"/><use xlink:href="#24" y="41.249"/><use xlink:href="#25" y="43.42"/><use xlink:href="#8" y="45.591"/><use xlink:href="#26" y="47.762"/></svg><svg x="3900"><use xlink:href="#a"/><use xlink:href="#b" x="-.004" y="52.079"/><use xlink:href="#12"/><use xlink:href="#13" y="2.171"/><use xlink:href="#14" y="6.513"/><use xlink:href="#15" y="8.684"/><use xlink:href="#16" y="10.855"/><use xlink:href="#17" y="13.026"/><use xlink:href="#18" y="15.197"/><use xlink:href="#5" y="19.539"/><use xlink:href="#6" y="21.71"/><use xlink:href="#7" y="23.881"/><use xlink:href="#19" y="26.052"/><use xlink:href="#20" y="30.394"/><use xlink:href="#21" y="32.565"/><use xlink:href="#22" y="34.736"/><use xlink:href="#23" y="36.907"/><use xlink:href="#24" y="41.249"/><use xlink:href="#25" y="43.42"/><use xlink:href="#8" y="45.591"/><use xlink:href="#26" y="47.762"/></svg><svg x="4000"><use xlink:href="#a"/><use xlink:href="#b" x="-.004" y="54.25"/><use xlink:href="#12"/><use xlink:href="#13" y="2.171"/><use xlink:href="#14" y="6.513"/><use xlink:href="#15" y="8.684"/><use xlink:href="#16" y="10.855"/><use xlink:href="#17" y="13.026"/><use xlink:href="#18" y="15.197"/><use xlink:href="#5" y="19.539"/><use xlink:href="#6" y="21.71"/><use xlink:href="#7" y="23.881"/><use xlink:href="#19" y="26.052"/><use xlink:href="#20" y="30.394"/><use xlink:href="#21" y="32.565"/><use xlink:href="#22" y="34.736"/><use xlink:href="#23" y="36.907"/><use xlink:href="#24" y="41.249"/><use xlink:href="#25" y="43.42"/><use xlink:href="#8" y="45.591"/><use xlink:href="#26" y="47.762"/><use xlink:href="#27" y="52.104"/></svg><svg x="4100"><use xlink:href="#a"/><use xlink:href="#b" x="-.004" y="56.421"/><use xlink:href="#12"/><use xlink:href="#13" y="2.171"/><use xlink:href="#14" y="6.513"/><use xlink:href="#15" y="8.684"/><use xlink:href="#16" y="10.855"/><use xlink:href="#17" y="13.026"/><use xlink:href="#18" y="15.197"/><use xlink:href="#5" y="19.539"/><use xlink:href="#6" y="21.71"/><use xlink:href="#7" y="23.881"/><use xlink:href="#19" y="26.052"/><use xlink:href="#20" y="30.394"/><use xlink:href="#21" y="32.565"/><use xlink:href="#22" y="34.736"/><use xlink:href="#23" y="36.907"/><use xlink:href="#24" y="41.249"/><use xlink:href="#25" y="43.42"/><use xlink:href="#8" y="45.591"/><use xlink:href="#26" y="47.762"/><use xlink:href="#27" y="52.104"/></svg></svg></g></g></svg></svg>